<svg width="190" height="109" viewBox="0 0 190 109" fill="none" xmlns="http://www.w3.org/2000/svg">
<path d="M136.202 108V78.9091H156.486V84.6193H143.233V90.5852H155.449V96.3097H143.233V102.29H156.486V108H136.202ZM179.98 88.4119C179.819 87.8153 179.582 87.2898 179.27 86.8352C178.957 86.3712 178.574 85.9782 178.119 85.6562C177.665 85.3343 177.144 85.0928 176.557 84.9318C175.97 84.7614 175.326 84.6761 174.625 84.6761C173.214 84.6761 171.992 85.017 170.96 85.6989C169.938 86.3807 169.147 87.375 168.588 88.6818C168.029 89.9792 167.75 91.5559 167.75 93.4119C167.75 95.2775 168.02 96.8684 168.56 98.1847C169.099 99.5009 169.881 100.505 170.903 101.196C171.926 101.887 173.167 102.233 174.625 102.233C175.913 102.233 177.002 102.025 177.892 101.608C178.792 101.182 179.473 100.58 179.938 99.804C180.402 99.0275 180.634 98.1136 180.634 97.0625L181.94 97.2188H174.866V92.0909H187.409V95.9403C187.409 98.5445 186.855 100.775 185.747 102.631C184.649 104.487 183.134 105.912 181.202 106.906C179.279 107.901 177.068 108.398 174.568 108.398C171.794 108.398 169.355 107.796 167.253 106.594C165.151 105.391 163.512 103.677 162.338 101.452C161.164 99.2169 160.577 96.5653 160.577 93.4972C160.577 91.1108 160.932 88.9943 161.642 87.1477C162.352 85.2917 163.342 83.7197 164.611 82.4318C165.889 81.1439 167.366 80.1686 169.043 79.5057C170.728 78.8428 172.542 78.5114 174.483 78.5114C176.169 78.5114 177.736 78.7528 179.185 79.2358C180.643 79.7188 181.931 80.4006 183.048 81.2812C184.175 82.1619 185.089 83.2083 185.79 84.4205C186.491 85.6326 186.926 86.9631 187.097 88.4119H179.98Z" fill="#E6E7E9"/>
<line x1="123.5" y1="-2.18557e-08" x2="123.5" y2="108" stroke="#E6E7E9"/>
<path d="M27.235 108.91C23.6383 108.91 20.3017 108.347 17.225 107.22C14.1917 106.05 11.5483 104.403 9.29499 102.28C7.08499 100.157 5.35166 97.665 4.09499 94.805C2.83833 91.9017 2.20999 88.7167 2.20999 85.25C2.20999 81.7833 2.83833 78.62 4.09499 75.76C5.35166 72.8567 7.08499 70.3433 9.29499 68.22C11.5483 66.0967 14.1917 64.4717 17.225 63.345C20.3017 62.175 23.6383 61.59 27.235 61.59C31.4383 61.59 35.1867 62.3267 38.48 63.8C41.8167 65.2733 44.59 67.3967 46.8 70.17L38.61 77.58C37.1367 75.8467 35.5117 74.525 33.735 73.615C32.0017 72.705 30.0517 72.25 27.885 72.25C26.0217 72.25 24.31 72.5533 22.75 73.16C21.19 73.7667 19.8467 74.655 18.72 75.825C17.6367 76.9517 16.77 78.3167 16.12 79.92C15.5133 81.5233 15.21 83.3 15.21 85.25C15.21 87.2 15.5133 88.9767 16.12 90.58C16.77 92.1833 17.6367 93.57 18.72 94.74C19.8467 95.8667 21.19 96.7333 22.75 97.34C24.31 97.9467 26.0217 98.25 27.885 98.25C30.0517 98.25 32.0017 97.795 33.735 96.885C35.5117 95.975 37.1367 94.6533 38.61 92.92L46.8 100.33C44.59 103.06 41.8167 105.183 38.48 106.7C35.1867 108.173 31.4383 108.91 27.235 108.91Z" fill="#E6E7E9"/>
<path d="M85.495 108.91C81.855 108.91 78.4967 108.325 75.42 107.155C72.3433 105.985 69.6567 104.338 67.36 102.215C65.1067 100.048 63.3517 97.535 62.095 94.675C60.8383 91.815 60.21 88.6733 60.21 85.25C60.21 81.8267 60.8383 78.685 62.095 75.825C63.3517 72.965 65.1067 70.4733 67.36 68.35C69.6567 66.1833 72.3433 64.515 75.42 63.345C78.4967 62.175 81.855 61.59 85.495 61.59C89.1783 61.59 92.5367 62.175 95.57 63.345C98.6467 64.515 101.312 66.1833 103.565 68.35C105.818 70.4733 107.573 72.965 108.83 75.825C110.13 78.685 110.78 81.8267 110.78 85.25C110.78 88.6733 110.13 91.8367 108.83 94.74C107.573 97.6 105.818 100.092 103.565 102.215C101.312 104.338 98.6467 105.985 95.57 107.155C92.5367 108.325 89.1783 108.91 85.495 108.91ZM85.495 98.25C87.2283 98.25 88.8317 97.9467 90.305 97.34C91.8217 96.7333 93.1217 95.8667 94.205 94.74C95.3317 93.57 96.1983 92.1833 96.805 90.58C97.455 88.9767 97.78 87.2 97.78 85.25C97.78 83.2567 97.455 81.48 96.805 79.92C96.1983 78.3167 95.3317 76.9517 94.205 75.825C93.1217 74.655 91.8217 73.7667 90.305 73.16C88.8317 72.5533 87.2283 72.25 85.495 72.25C83.7617 72.25 82.1367 72.5533 80.62 73.16C79.1467 73.7667 77.8467 74.655 76.72 75.825C75.6367 76.9517 74.77 78.3167 74.12 79.92C73.5133 81.48 73.21 83.2567 73.21 85.25C73.21 87.2 73.5133 88.9767 74.12 90.58C74.77 92.1833 75.6367 93.57 76.72 94.74C77.8467 95.8667 79.1467 96.7333 80.62 97.34C82.1367 97.9467 83.7617 98.25 85.495 98.25Z" fill="#E6E7E9"/>
<path d="M18 0V45H29.7366V0H18Z" fill="#E6E7E9"/>
<path d="M61 0V45H73.5V11.25H98.5V45H111V0H61Z" fill="#E6E7E9"/>
</svg>
