<svg width="207" height="120" viewBox="0 0 207 120" fill="none" xmlns="http://www.w3.org/2000/svg">
<path d="M153.202 111V81.9091H173.486V87.6193H160.233V93.5852H172.449V99.3097H160.233V105.29H173.486V111H153.202ZM196.98 91.4119C196.819 90.8153 196.582 90.2898 196.27 89.8352C195.957 89.3712 195.574 88.9782 195.119 88.6562C194.665 88.3343 194.144 88.0928 193.557 87.9318C192.97 87.7614 192.326 87.6761 191.625 87.6761C190.214 87.6761 188.992 88.017 187.96 88.6989C186.938 89.3807 186.147 90.375 185.588 91.6818C185.029 92.9792 184.75 94.5559 184.75 96.4119C184.75 98.2775 185.02 99.8684 185.56 101.185C186.099 102.501 186.881 103.505 187.903 104.196C188.926 104.887 190.167 105.233 191.625 105.233C192.913 105.233 194.002 105.025 194.892 104.608C195.792 104.182 196.473 103.58 196.938 102.804C197.402 102.027 197.634 101.114 197.634 100.062L198.94 100.219H191.866V95.0909H204.409V98.9403C204.409 101.545 203.855 103.775 202.747 105.631C201.649 107.487 200.134 108.912 198.202 109.906C196.279 110.901 194.068 111.398 191.568 111.398C188.794 111.398 186.355 110.796 184.253 109.594C182.151 108.391 180.512 106.677 179.338 104.452C178.164 102.217 177.577 99.5653 177.577 96.4972C177.577 94.1108 177.932 91.9943 178.642 90.1477C179.352 88.2917 180.342 86.7197 181.611 85.4318C182.889 84.1439 184.366 83.1686 186.043 82.5057C187.728 81.8428 189.542 81.5114 191.483 81.5114C193.169 81.5114 194.736 81.7528 196.185 82.2358C197.643 82.7188 198.931 83.4006 200.048 84.2812C201.175 85.1619 202.089 86.2083 202.79 87.4205C203.491 88.6326 203.926 89.9631 204.097 91.4119H196.98Z" fill="#E6E7E9"/>
<line x1="137" y1="4.37114e-08" x2="137" y2="111" stroke="#E6E7E9" stroke-width="2"/>
<path d="M49.3166 79.0201H37.0731C36.9099 77.7631 36.5752 76.6286 36.0692 75.6165C35.5631 74.6043 34.8938 73.7391 34.0612 73.0209C33.2287 72.3026 32.2411 71.7557 31.0983 71.3802C29.9719 70.9884 28.7231 70.7925 27.3518 70.7925C24.9195 70.7925 22.8218 71.3884 21.0587 72.5801C19.312 73.7718 17.9652 75.494 17.0184 77.7468C16.0879 79.9996 15.6226 82.7258 15.6226 85.9254C15.6226 89.2557 16.096 92.0472 17.0429 94.3C18.006 96.5364 19.3528 98.226 21.0832 99.3687C22.8299 100.495 24.895 101.058 27.2784 101.058C28.617 101.058 29.8332 100.887 30.9269 100.544C32.037 100.201 33.0083 99.7034 33.8409 99.0504C34.6897 98.3811 35.3835 97.573 35.9222 96.6262C36.4773 95.6631 36.8609 94.5775 37.0731 93.3695L49.3166 93.4429C49.1043 95.6631 48.4595 97.8505 47.3821 100.005C46.321 102.16 44.86 104.127 42.999 105.907C41.138 107.67 38.8688 109.074 36.1916 110.118C33.5307 111.163 30.478 111.686 27.0335 111.686C22.4953 111.686 18.4305 110.69 14.839 108.698C11.264 106.69 8.43981 103.768 6.36659 99.9319C4.29337 96.0957 3.25675 91.4268 3.25675 85.9254C3.25675 80.4077 4.30969 75.7307 6.41556 71.8945C8.52143 68.0582 11.3701 65.1442 14.9615 63.1526C18.5529 61.161 22.5769 60.1652 27.0335 60.1652C30.0699 60.1652 32.8777 60.5897 35.457 61.4386C38.0363 62.2711 40.3054 63.4955 42.2643 65.1116C44.2233 66.7114 45.8149 68.6785 47.0393 71.0129C48.2636 73.3473 49.0227 76.0164 49.3166 79.0201Z" fill="#E6E7E9"/>
<path d="M117.129 85.9254C117.129 91.4431 116.067 96.1201 113.945 99.9564C111.823 103.793 108.95 106.707 105.326 108.698C101.718 110.69 97.6697 111.686 93.1804 111.686C88.6748 111.686 84.6182 110.682 81.0105 108.674C77.4027 106.666 74.5378 103.752 72.4156 99.9319C70.3097 96.0957 69.2568 91.4268 69.2568 85.9254C69.2568 80.4077 70.3097 75.7307 72.4156 71.8945C74.5378 68.0582 77.4027 65.1442 81.0105 63.1526C84.6182 61.161 88.6748 60.1652 93.1804 60.1652C97.6697 60.1652 101.718 61.161 105.326 63.1526C108.95 65.1442 111.823 68.0582 113.945 71.8945C116.067 75.7307 117.129 80.4077 117.129 85.9254ZM104.738 85.9254C104.738 82.6605 104.273 79.9017 103.342 77.6489C102.428 75.3961 101.106 73.6902 99.3756 72.5311C97.6615 71.3721 95.5965 70.7925 93.1804 70.7925C90.7807 70.7925 88.7157 71.3721 86.9853 72.5311C85.2548 73.6902 83.9244 75.3961 82.9939 77.6489C82.0797 79.9017 81.6226 82.6605 81.6226 85.9254C81.6226 89.1904 82.0797 91.9492 82.9939 94.202C83.9244 96.4548 85.2548 98.1607 86.9853 99.3198C88.7157 100.479 90.7807 101.058 93.1804 101.058C95.5965 101.058 97.6615 100.479 99.3756 99.3198C101.106 98.1607 102.428 96.4548 103.342 94.202C104.273 91.9492 104.738 89.1904 104.738 85.9254Z" fill="#E6E7E9"/>
<path d="M19.5743 0V44.4871H30.6961V0H19.5743Z" fill="#E6E7E9"/>
<path d="M69.6223 0V44.4871H80.7441V11.1218H102.988V44.4871H114.109V0H69.6223Z" fill="#E6E7E9"/>
</svg>
